<svg width="96" height="96" xmlns="http://www.w3.org/2000/svg" xmlns:xlink="http://www.w3.org/1999/xlink" xml:space="preserve" overflow="hidden"><defs><clipPath id="clip0"><rect x="702" y="287" width="96" height="96"/></clipPath></defs><g clip-path="url(#clip0)" transform="translate(-702 -287)"><path d="M725 301 775 301 775 369 725 369 725 301ZM719 375 781 375 781 295 719 295 719 375Z"/><path d="M732 307 740 307 740 315 732 315Z"/><path d="M748 309 768 309 768 313 748 313Z"/><path d="M732 323 740 323 740 331 732 331Z"/><path d="M748 325 768 325 768 329 748 329Z"/><path d="M732 339 740 339 740 347 732 347Z"/><path d="M748 341 768 341 768 345 748 345Z"/><path d="M732 355 740 355 740 363 732 363Z"/><path d="M748 357 768 357 768 361 748 361Z"/></g></svg>