<svg width="96" height="96" xmlns="http://www.w3.org/2000/svg" xmlns:xlink="http://www.w3.org/1999/xlink" xml:space="preserve" overflow="hidden"><defs><clipPath id="clip0"><rect x="389" y="287" width="96" height="96"/></clipPath></defs><g clip-path="url(#clip0)" transform="translate(-389 -287)"><path d="M437 347C430.4 347 425 341.6 425 335 425 328.4 430.4 323 437 323 443.6 323 449 328.4 449 335 449 341.6 443.6 347 437 347ZM464 327.5C463.4 325.3 462.5 323.2 461.4 321.3L463.9 313.8 458.2 308.1 450.7 310.6C448.7 309.5 446.6 308.6 444.4 308L441 301 433 301 429.5 308C427.3 308.6 425.2 309.5 423.3 310.6L415.8 308.1 410.1 313.8 412.6 321.3C411.5 323.3 410.6 325.4 410 327.6L403 331 403 339 410 342.5C410.6 344.7 411.5 346.8 412.6 348.7L410.1 356.2 415.8 361.9 423.3 359.4C425.3 360.5 427.4 361.4 429.6 362L433.1 369 441.1 369 444.6 362C446.8 361.4 448.9 360.5 450.8 359.4L458.3 361.9 464 356.2 461.5 348.7C462.6 346.7 463.5 344.6 464.1 342.4L471.1 338.9 471.1 330.9 464 327.5Z"/></g></svg>